<?xml version="1.0" encoding="utf-8"?>
<!-- Generator: Adobe Illustrator 27.4.0, SVG Export Plug-In . SVG Version: 6.00 Build 0)  -->
<svg version="1.1" id="레이어_1" xmlns="http://www.w3.org/2000/svg" xmlns:xlink="http://www.w3.org/1999/xlink" x="0px"
	 y="0px" viewBox="0 0 220 50" style="enable-background:new 0 0 220 50;" xml:space="preserve">
<style type="text/css">
	.st0{fill:#1EB858;}
</style>
<g>
	<path class="st0" d="M30,25.7v3.4h-9.4v3.6h-3.6v-3.6h-4.7v5.5h16.5v3.7H8.3v-9.2H6.4v-3.4H30z M28.1,23.8H8.3V12.5h4v2.7h11.8
		v-2.7h4V23.8z M12.3,20.3h11.8v-1.8H12.3V20.3z"/>
	<path class="st0" d="M33.4,12.6h13.5v3.7h-9.7v6.1h9.7v3.7H33.4V12.6z M39.1,28.6h11.1c2.7,0,4.9,2.2,4.9,4.9
		c0,2.7-2.2,4.9-4.9,4.9H39.1c-2.7,0-4.9-2.2-4.9-4.9C34.2,30.8,36.4,28.6,39.1,28.6z M39.1,34.9h11c0.7,0,1.2-0.7,1.2-1.4
		s-0.5-1.4-1.2-1.4h-11c-0.7,0-1.2,0.7-1.2,1.4S38.4,34.9,39.1,34.9z M50.7,26.6V12.5h3.8v4.8h2.8v3.7h-2.8v5.6H50.7z"/>
	<path class="st0" d="M73.2,19.1v12.7c0,3.7-3,6.6-6.8,6.6s-6.7-2.9-6.7-6.6V19.1c0-3.7,3-6.6,6.7-6.6S73.2,15.4,73.2,19.1z
		 M63.5,19.1v12.7c0,1.5,1.3,2.7,2.8,2.7c1.6,0,2.8-1.2,2.8-2.7V19.1c0-1.5-1.3-2.8-2.8-2.8C64.8,16.3,63.5,17.5,63.5,19.1z
		 M77,38.4V12.5h3.9v4.8h2.8V21h-2.8v4.3h2.8V29h-2.8v9.4H77z"/>
	<path class="st0" d="M101.6,27.6l1.4-11.2H87.3v-3.8h19.8v3.8l-1.4,11.2h3.2v3.7h-9.8v7.1h-3.8v-7.1h-9.8v-3.7H101.6z"/>
	<path class="st0" d="M125.7,19.1v12.7c0,3.7-3,6.6-6.8,6.6c-3.7,0-6.7-2.9-6.7-6.6V19.1c0-3.7,3-6.6,6.7-6.6
		C122.7,12.5,125.7,15.4,125.7,19.1z M116.1,19.1v12.7c0,1.5,1.3,2.7,2.8,2.7c1.6,0,2.8-1.2,2.8-2.7V19.1c0-1.5-1.3-2.8-2.8-2.8
		C117.4,16.3,116.1,17.5,116.1,19.1z M133.4,23.2h2.8V27h-2.8v11.4h-3.8V12.5h3.8V23.2z"/>
	<path class="st0" d="M146.2,26.1h-8.3v-3.7h8.8l0.9-6.2h-9.8v-3.7h14.1v3.7l-3.1,21.9h-4.2L146.2,26.1z M156,38.4V12.5h3.6v8.8h2.8
		v3.6h-2.8v13.4H156z"/>
	<path class="st0" d="M164.9,12.6h10.7v3.7H169v18.3h7.1v3.6h-11.2V12.6z M177.9,26.9h-6.2v-3.7h6.2V12.5h3.7v25.9h-3.7V26.9z
		 M187.5,38.4h-3.8V12.5h3.8V38.4z"/>
	<path class="st0" d="M205.5,38.2h-14.2V12.6h14.2V38.2z M195.5,34.5h5.7V16.4h-5.7V34.5z M212.9,38.4H209V12.5h3.9V38.4z"/>
</g>
</svg>
